<?xml version="1.0" encoding="UTF-8" standalone="no"?>
<!-- Created with Inkscape (http://www.inkscape.org/) -->

<svg
   xmlns:dc="http://purl.org/dc/elements/1.1/"
   xmlns:cc="http://creativecommons.org/ns#"
   xmlns:rdf="http://www.w3.org/1999/02/22-rdf-syntax-ns#"
   xmlns:svg="http://www.w3.org/2000/svg"
   xmlns="http://www.w3.org/2000/svg"
   xmlns:xlink="http://www.w3.org/1999/xlink"
   xmlns:sodipodi="http://sodipodi.sourceforge.net/DTD/sodipodi-0.dtd"
   xmlns:inkscape="http://www.inkscape.org/namespaces/inkscape"
   width="210mm"
   height="297mm"
   viewBox="0 0 210 297"
   version="1.1"
   id="svg4524"
   inkscape:version="0.92.3 (2405546, 2018-03-11)"
   sodipodi:docname="JSMCreations.svg">
  <defs
     id="defs4518">
    <linearGradient
       id="linearGradient5143"
       inkscape:collect="always">
      <stop
         id="stop5139"
         offset="0"
         style="stop-color:#008000;stop-opacity:1;" />
      <stop
         id="stop5141"
         offset="1"
         style="stop-color:#1a1a1a;stop-opacity:1" />
    </linearGradient>
    <linearGradient
       inkscape:collect="always"
       id="linearGradient5129">
      <stop
         style="stop-color:#008000;stop-opacity:1;"
         offset="0"
         id="stop5125" />
      <stop
         style="stop-color:#000000;stop-opacity:1"
         offset="1"
         id="stop5127" />
    </linearGradient>
    <linearGradient
       inkscape:collect="always"
       xlink:href="#linearGradient5143"
       id="linearGradient5135"
       x1="135.7729"
       y1="45.036556"
       x2="191.59772"
       y2="171.30377"
       gradientUnits="userSpaceOnUse" />
    <linearGradient
       inkscape:collect="always"
       xlink:href="#linearGradient5129"
       id="linearGradient5137"
       x1="79.861488"
       y1="157.09622"
       x2="80.547928"
       y2="171.36229"
       gradientUnits="userSpaceOnUse" />
    <linearGradient
       inkscape:collect="always"
       xlink:href="#linearGradient5143"
       id="linearGradient5145"
       gradientUnits="userSpaceOnUse"
       x1="35.100922"
       y1="48.894333"
       x2="83.086296"
       y2="176.91644" />
    <linearGradient
       inkscape:collect="always"
       xlink:href="#linearGradient5143"
       id="linearGradient5147"
       gradientUnits="userSpaceOnUse"
       x1="81.071281"
       y1="45.687099"
       x2="147.49826"
       y2="181.99455" />
  </defs>
  <sodipodi:namedview
     id="base"
     pagecolor="#ffffff"
     bordercolor="#666666"
     borderopacity="1.0"
     inkscape:pageopacity="0.0"
     inkscape:pageshadow="2"
     inkscape:zoom="0.98994949"
     inkscape:cx="290.22347"
     inkscape:cy="701.89893"
     inkscape:document-units="mm"
     inkscape:current-layer="layer1"
     showgrid="false"
     inkscape:window-width="1600"
     inkscape:window-height="837"
     inkscape:window-x="-8"
     inkscape:window-y="-1"
     inkscape:window-maximized="1" />
  <metadata
     id="metadata4521">
    <rdf:RDF>
      <cc:Work
         rdf:about="">
        <dc:format>image/svg+xml</dc:format>
        <dc:type
           rdf:resource="http://purl.org/dc/dcmitype/StillImage" />
        <dc:title></dc:title>
      </cc:Work>
    </rdf:RDF>
  </metadata>
  <g
     inkscape:label="Layer 1"
     inkscape:groupmode="layer"
     id="layer1">
    <g
       id="g5103"
       style="stroke:#000000;fill:url(#linearGradient5135);fill-opacity:1;stroke-width:1;stroke-miterlimit:4;stroke-dasharray:none">
      <path
         sodipodi:nodetypes="csccscscsccc"
         inkscape:connector-curvature="0"
         id="path5071"
         d="m 33.151199,69.836309 c 0,0 -18.078007,16.283771 -18.078007,-7.150753 0,-23.434524 15.054197,-24.221271 15.054197,-24.221271 l 34.773808,-2.267857 c 0,0 11.339287,-3.023809 11.339287,5.669643 0,8.693451 2.645833,68.791669 2.645833,68.791669 0,0 4.535713,36.28571 -46.869047,38.55357 -51.404762,2.26785 -6.803572,-44.22322 -6.803572,-44.22322 0,0 10.205357,-7.55952 13.229166,0.75596 3.023811,8.31547 -2.645834,20.78869 -2.645834,20.78869 0,0 42.106549,15.11904 30.994048,-77.485121 z"
         style="fill:url(#linearGradient5145);stroke:#000000;stroke-width:1;stroke-linecap:butt;stroke-linejoin:miter;stroke-miterlimit:4;stroke-dasharray:none;stroke-opacity:1;fill-opacity:1" />
      <path
         inkscape:export-ydpi="96"
         inkscape:export-xdpi="96"
         sodipodi:nodetypes="cssscsscsccscsccc"
         inkscape:connector-curvature="0"
         id="path5075"
         d="m 128.28936,39.848232 c 0,0 -7.13291,99.963958 -7.21627,102.050078 0,0 -0.26727,5.05096 1.33634,5.05096 1.60362,0 11.22532,0.6738 16.30344,-0.57073 5.07812,-1.24452 -2.67269,-98.067637 -2.67269,-98.067637 0,0 9.28408,34.142296 18.17432,46.793698 3.47626,4.946929 9.88898,-0.24891 9.88898,-0.24891 7.29775,-15.758536 12.82894,-46.295886 12.82894,-46.295886 0,0 -2.01823,81.729765 -0.8667,96.521655 0.0972,1.2481 1.25417,1.67576 1.25417,1.67576 3.49349,0.33173 7.23756,0.46503 12.22676,0.2213 0,0 1.96125,0.0703 2.05789,-2.43714 0.5766,-14.96103 -6.1195,-105.439872 -6.1195,-105.439872 0,0 -5.87993,-9.707204 -11.22532,-0.74671 -5.34539,8.960494 -16.03617,40.322227 -16.03617,40.322227 L 139.51468,38.354818 c 0,0 -8.81989,-6.471469 -11.22532,1.493414 z"
         style="fill:url(#linearGradient5135);stroke:#000000;stroke-width:1;stroke-linecap:butt;stroke-linejoin:miter;stroke-opacity:1;stroke-miterlimit:4;stroke-dasharray:none;fill-opacity:1" />
      <path
         inkscape:export-ydpi="96"
         inkscape:export-xdpi="96"
         sodipodi:nodetypes="zssssccssczsccz"
         inkscape:connector-curvature="0"
         id="path5073"
         d="m 135.77291,45.036557 c -2.77458,-4.515704 -46.383546,-13.734504 -55.057514,-7.334132 -7.652269,5.646477 -27.796031,25.809916 15.768898,50.691979 43.564936,24.882056 14.432556,37.695366 14.432556,37.695366 -4.8085,1.6146 -22.183366,4.19956 -37.417731,-4.09004 -15.234364,-8.2896 -8.285356,19.7638 -8.285356,19.7638 0,0 0.534541,6.62956 5.879931,5.55297 5.34539,-1.07657 35.634476,2.98519 53.453896,-3.90944 5.78988,-2.2402 9.89291,-6.88216 11.64285,-12.85096 3.63583,-12.40129 -2.88603,-30.53027 -25.54086,-44.746362 0,0 -14.655536,-7.616991 -19.580926,-12.545963 -4.925388,-4.928973 -10.016364,-20.094881 10.016376,-19.323489 20.03274,0.771392 25.51339,8.668438 25.51339,8.668438 0,0 8.31547,6.799114 9.82738,0.887505 1.5119,-5.911613 2.12169,-13.943967 -0.65289,-18.459672 z"
         style="fill:url(#linearGradient5147);stroke:#000000;stroke-width:1;stroke-linecap:butt;stroke-linejoin:miter;stroke-opacity:1;stroke-miterlimit:4;stroke-dasharray:none;fill-opacity:1" />
    </g>
    <g
       aria-label="Creations"
       style="font-style:normal;font-variant:normal;font-weight:normal;font-stretch:normal;font-size:10.58333302px;line-height:1.25;font-family:Forte;-inkscape-font-specification:Forte;letter-spacing:0px;word-spacing:0px;fill:url(#linearGradient5137);fill-opacity:1;stroke:#000000;stroke-width:0.26443499;stroke-miterlimit:4;stroke-dasharray:none"
       id="text5079"
       transform="matrix(2.0190976,0,0,1.4342664,-58.028351,-71.587556)"
       inkscape:export-xdpi="96"
       inkscape:export-ydpi="96">
      <path
         d="m 50.157825,155.77811 q 0.214788,-0.86109 0.305946,-1.90641 0.09831,-1.05457 0.01321,-1.71887 -0.05568,-0.43466 -0.260712,-0.4084 -0.188628,0.0242 -0.624815,0.58853 -0.643352,0.89932 -1.091161,2.02367 -0.44886,1.11615 -0.620777,2.24683 -0.171916,1.13068 -0.03849,2.17224 0.105059,0.82012 0.316157,1.1015 0.219299,0.28033 0.711371,0.2173 0.426463,-0.0546 1.027489,-0.37337 1.354519,-0.74868 2.811078,-2.00225 0.647521,-0.54142 0.836149,-0.56559 0.27064,-0.0347 0.305309,0.23597 l 0.0021,0.0164 q 0.0063,0.3743 -0.147077,0.86909 -0.310897,0.95676 -0.586823,1.27553 -0.464993,0.5347 -1.325746,1.10344 -0.852551,0.56768 -1.775322,0.97764 -0.922771,0.40996 -1.570667,0.49296 -0.74631,0.0956 -1.446328,-0.0981 -0.701069,-0.20194 -1.256177,-0.63098 -0.555109,-0.42903 -0.917998,-1.04941 -0.362889,-0.62038 -0.458493,-1.36669 -0.07249,-0.56588 0.02389,-1.24509 0.09533,-0.68741 0.347326,-1.45324 0.251998,-0.76584 0.605766,-1.45301 0.20591,-0.40982 0.432425,-0.78895 0.234716,-0.38017 0.520741,-0.75024 0.294226,-0.37112 0.649012,-0.725 0.354786,-0.35387 0.655519,-0.60912 0.524706,-0.459 1.103026,-0.82484 0.57832,-0.36584 1.085337,-0.5725 0.507018,-0.20665 0.941682,-0.26234 1.074358,-0.13762 1.752688,0.34231 0.678331,0.47994 0.804402,1.46409 0.132376,1.03335 -0.231117,2.23025 -0.364543,1.18871 -1.101056,2.14164 -0.505593,0.67328 -1.035552,1.09128 -0.52996,0.41799 -0.989228,0.47682 -0.401859,0.0515 -0.451237,-0.33398 -0.02311,-0.18042 0.157346,-0.52864 0.254914,-0.48278 0.520806,-1.40044 z"
         style="font-style:normal;font-variant:normal;font-weight:normal;font-stretch:normal;font-size:16.93333244px;font-family:Forte;-inkscape-font-specification:Forte;fill:url(#linearGradient5137);stroke:#000000;stroke-width:0.26443499;stroke-miterlimit:4;stroke-dasharray:none;fill-opacity:1"
         id="path5081"
         inkscape:connector-curvature="0" />
      <path
         d="m 57.67095,159.65126 -0.01179,0.16823 q 0.01786,0.13942 0.01868,0.40606 0.01867,0.40606 -0.0062,0.66765 -0.02484,0.2616 -0.117594,0.44853 -0.0938,0.17873 -0.266471,0.39257 -0.528298,0.62618 -1.135188,0.70392 -0.492072,0.063 -0.776134,-0.26735 -0.27586,-0.33143 -0.378818,-1.13515 -0.08195,-0.6397 -0.06229,-1.59249 0.0268,-0.96205 0.136229,-1.73463 l 0.03829,-0.22164 q -0.0063,-0.0492 0.02294,-0.21133 0.160564,-1.15424 0.346512,-1.71988 0.184898,-0.57385 0.503728,-0.94813 0.287278,-0.29521 0.689138,-0.34669 0.582286,-0.0746 0.795655,0.61496 0.10221,-0.11313 0.192016,-0.258 0.201064,-0.31751 0.320727,-0.42454 0.118612,-0.11522 0.290838,-0.13728 0.705304,-0.0904 0.883905,1.30385 0.09771,0.76271 0.02508,1.49723 -0.07262,0.73452 -0.269077,1.21815 -0.188254,0.48259 -0.43429,0.51411 -0.27064,0.0347 -0.401965,-0.99049 -0.06934,-0.54128 -0.173821,-0.83632 -0.09733,-0.30429 -0.250613,-0.4597 -0.187203,0.49078 -0.05089,2.14048 0.06446,0.95869 0.07137,1.20788 z"
         style="font-style:normal;font-variant:normal;font-weight:normal;font-stretch:normal;font-size:16.93333244px;font-family:Forte;-inkscape-font-specification:Forte;fill:url(#linearGradient5137);stroke:#000000;stroke-width:0.26443499;stroke-miterlimit:4;stroke-dasharray:none;fill-opacity:1"
         id="path5083"
         inkscape:connector-curvature="0" />
      <path
         d="m 63.203957,159.59575 q 0.344688,-0.30256 0.508948,-0.58201 0.366375,-0.58877 0.51596,-1.30813 0.130845,-0.47523 0.16602,-1.04657 0.03518,-0.57134 -0.02681,-1.05522 -0.05778,-0.45106 -0.24641,-0.4269 -0.262439,0.0336 -0.655585,1.25933 -0.230546,0.73808 -0.346276,1.46144 -0.108579,0.71412 -0.04449,1.21439 0.02206,0.17223 0.128645,0.48367 z m 0.05002,0.26034 q 0.153249,0.48052 0.70273,0.41013 0.615091,-0.0788 1.506784,-0.92658 0.520504,-0.4918 0.717333,-0.51702 0.246036,-0.0315 0.476077,0.0724 0.230041,0.1039 0.247902,0.24332 0.01891,0.14763 -0.188458,0.41593 -0.378982,0.49034 -0.891285,0.9811 -0.513354,0.48255 -1.002511,0.82863 -0.490208,0.33788 -0.994073,0.56914 -0.504916,0.22306 -0.914977,0.27559 -1.025151,0.13133 -1.714834,-0.37217 -0.690734,-0.51169 -0.815755,-1.48763 -0.0956,-0.74631 0.104475,-1.72222 0.207229,-0.98517 0.651651,-1.87568 0.524975,-1.04254 1.386168,-1.80305 1.065816,-0.9201 2.131973,-1.05668 0.770914,-0.0987 1.268614,0.33764 0.50485,0.42714 0.614113,1.28006 0.0851,0.6643 -0.175102,1.43118 -0.251998,0.76584 -0.8476,1.51733 -0.486242,0.62913 -0.987599,1.01011 -0.493156,0.37994 -0.895015,0.43142 -0.180427,0.0231 -0.380611,-0.0429 z"
         style="font-style:normal;font-variant:normal;font-weight:normal;font-stretch:normal;font-size:16.93333244px;font-family:Forte;-inkscape-font-specification:Forte;fill:url(#linearGradient5137);stroke:#000000;stroke-width:0.26443499;stroke-miterlimit:4;stroke-dasharray:none;fill-opacity:1"
         id="path5085"
         inkscape:connector-curvature="0" />
      <path
         d="m 73.507834,157.46146 -0.149519,0.0692 q -0.569475,0.23967 -0.831914,0.27328 -0.319847,0.041 -0.340859,-0.12305 -0.0074,-0.0574 0.09235,-0.32025 0.369967,-0.75594 0.291172,-1.37103 -0.04518,-0.35265 -0.204964,-0.62393 -0.16084,-0.27949 -0.308462,-0.26058 -0.131219,0.0168 -0.366139,0.33032 -0.656602,0.92603 -0.996305,1.85314 -0.331502,0.92606 -0.244303,1.60676 0.05778,0.45107 0.276031,0.7232 0.22645,0.27108 0.505291,0.23536 0.237835,-0.0305 0.820593,-0.62194 0.59096,-0.59252 1.295719,-1.53305 l 0.19832,-0.2088 z m -0.251485,1.94111 0.0042,0.0328 -0.03701,-0.0286 q -0.648198,0.99163 -1.21435,1.64766 -0.559002,0.64678 -1.063511,1.00317 -0.496308,0.35533 -0.947375,0.41311 -0.918535,0.11767 -1.596018,-0.42073 -0.677484,-0.5384 -0.798302,-1.48154 -0.07459,-0.58228 0.118743,-1.41562 0.193336,-0.83334 0.612306,-1.66224 0.701437,-1.3569 1.894066,-2.39327 1.230483,-1.06623 2.477067,-1.22592 1.049755,-0.13448 1.777936,0.21404 0.735331,0.33926 0.819379,0.99536 0.06199,0.48387 -0.204925,1.06822 0.442866,-0.0567 0.57029,0.027 0.126373,0.0755 0.170498,0.41995 -0.0042,-0.0328 0.0021,0.34151 0.0548,0.81822 0.145153,1.52352 0.04728,0.36906 0.07964,0.55663 0.03237,0.18758 0.08849,0.43047 0.05612,0.24288 0.09964,0.38735 0.114988,0.37705 0.310937,0.7354 -0.430087,0.54691 -0.851737,0.83432 -0.4227,0.27922 -0.890169,0.3391 -1.262987,0.16179 -1.534041,-1.95412 -0.03152,-0.24604 -0.03297,-0.38756 z"
         style="font-style:normal;font-variant:normal;font-weight:normal;font-stretch:normal;font-size:16.93333244px;font-family:Forte;-inkscape-font-specification:Forte;fill:url(#linearGradient5137);stroke:#000000;stroke-width:0.26443499;stroke-miterlimit:4;stroke-dasharray:none;fill-opacity:1"
         id="path5087"
         inkscape:connector-curvature="0" />
      <path
         d="m 77.84618,154.3786 0.0202,-0.10262 q 0.345868,-1.59476 0.659681,-2.26848 0.150806,-0.31941 0.457639,-0.59212 0.580014,-0.48275 1.137697,-0.55419 0.328048,-0.042 0.519184,0.0835 0.191136,0.12556 0.226857,0.4044 0.02416,0.18863 -0.147281,0.80243 -0.294291,1.02133 -0.391109,1.89232 0.141521,-10e-4 0.276943,0.0145 0.501528,0.0108 0.669958,0.0892 0.16738,0.0703 0.198898,0.31629 0.05568,0.43467 -0.118474,0.83209 -0.174156,0.39742 -0.512947,0.61587 -0.254881,0.15769 -0.856518,0.27644 -0.06564,0.3335 -0.125421,0.90799 -0.01077,0.50153 0.01037,1.38242 -0.0082,0.32615 0.02749,0.60499 0.165994,1.29579 1.420779,1.13505 l 0.04921,-0.006 0.0246,-0.003 q 0.147622,-0.0189 0.153925,0.0303 0.01681,0.13122 -0.222108,0.47858 -0.238919,0.34737 -0.544701,0.62828 -0.329336,0.29226 -0.736888,0.49452 -0.407552,0.20225 -0.752003,0.24637 -0.861127,0.11032 -1.476999,-0.40263 -0.607671,-0.514 -0.730591,-1.47354 -0.05253,-0.41006 0.0018,-1.09222 0.06252,-0.68321 0.223087,-1.83744 0.02399,-0.20314 0.05409,-0.42372 0.02904,-0.22879 0.03199,-0.27084 -0.329099,0.0338 -0.48533,-0.0795 -0.15623,-0.11336 -0.194051,-0.4086 -0.06619,-0.51668 0.268637,-1.02638 0.343026,-0.51074 0.861396,-0.69385 z"
         style="font-style:normal;font-variant:normal;font-weight:normal;font-stretch:normal;font-size:16.93333244px;font-family:Forte;-inkscape-font-specification:Forte;fill:url(#linearGradient5137);stroke:#000000;stroke-width:0.26443499;stroke-miterlimit:4;stroke-dasharray:none;fill-opacity:1"
         id="path5089"
         inkscape:connector-curvature="0" />
      <path
         d="m 84.340797,162.43636 q -0.372207,0.0227 -0.715574,-0.2501 -0.345469,-0.28918 -0.525016,-0.64962 -0.172396,-0.3697 -0.25014,-0.97659 -0.173349,-1.3532 0.109452,-3.11494 0.28995,-1.77099 0.831939,-2.61565 0.213264,-0.35241 0.664331,-0.4102 0.47567,-0.0609 0.818394,0.33696 0.350925,0.39685 0.441277,1.10215 0.133426,1.04155 0.0096,2.48283 -0.116642,1.43203 -0.464612,3.01039 -0.135487,0.63421 -0.419818,0.88736 -0.196422,0.15854 -0.483464,0.19531 z m -0.0717,-8.36829 q -0.774066,0.0742 -0.889632,-0.82798 -0.05778,-0.45107 0.08801,-1.06992 0.15294,-0.6281 0.403212,-0.95192 0.12766,-0.17473 0.266877,-0.25925 0.147418,-0.0856 0.385254,-0.11604 0.41006,-0.0525 0.624953,0.12834 0.222043,0.17161 0.281927,0.63908 0.07459,0.58229 -0.0632,1.13343 -0.130642,0.54189 -0.424867,0.91301 -0.295277,0.36292 -0.647929,0.4081 z"
         style="font-style:normal;font-variant:normal;font-weight:normal;font-stretch:normal;font-size:16.93333244px;font-family:Forte;-inkscape-font-specification:Forte;fill:url(#linearGradient5137);stroke:#000000;stroke-width:0.26443499;stroke-miterlimit:4;stroke-dasharray:none;fill-opacity:1"
         id="path5091"
         inkscape:connector-curvature="0" />
      <path
         d="m 91.771353,153.55762 q 1.22198,-0.15654 1.258751,0.1305 0.04202,0.32805 -0.504305,0.42304 -0.659046,0.12611 -1.190056,0.5359 -0.53101,0.40979 -0.907484,1.04986 -0.368273,0.63902 -0.529007,1.40149 -0.152534,0.76143 -0.04852,1.57335 0.114515,0.89393 0.603166,1.38983 0.487602,0.4877 1.160101,0.40155 0.623292,-0.0798 1.008814,-0.77942 0.385523,-0.69958 0.27626,-1.55251 -0.0893,-0.6971 -0.462288,-1.26617 -0.365837,-0.57832 -0.9771,-0.92514 -0.261999,-0.15816 -0.272505,-0.24017 -0.01471,-0.11482 0.291074,-0.39573 0.344687,-0.30256 0.790094,-0.53467 0.445406,-0.23211 0.765253,-0.27308 0.369055,-0.0473 0.722318,0.10752 0.360413,0.14556 0.660877,0.47384 0.299413,0.32009 0.490516,0.77075 0.198254,0.4414 0.265493,0.96628 0.111363,0.86933 -0.107423,1.76428 -0.219837,0.88675 -0.685678,1.47991 -0.603803,0.75255 -1.525116,1.30404 -0.914162,0.54223 -1.791692,0.65464 -0.852926,0.10926 -1.735472,-0.0778 -0.874345,-0.18808 -1.428403,-0.60892 -0.740144,-0.57205 -0.894582,-1.77762 -0.121869,-0.95134 0.22373,-1.96257 0.3456,-1.01122 1.042361,-1.88404 0.703912,-0.88208 1.606721,-1.44786 0.90996,-0.57504 1.894106,-0.70111 z"
         style="font-style:normal;font-variant:normal;font-weight:normal;font-stretch:normal;font-size:16.93333244px;font-family:Forte;-inkscape-font-specification:Forte;fill:url(#linearGradient5137);stroke:#000000;stroke-width:0.26443499;stroke-miterlimit:4;stroke-dasharray:none;fill-opacity:1"
         id="path5093"
         inkscape:connector-curvature="0" />
      <path
         d="m 99.515921,157.72784 0.418531,-0.63712 q 0.640198,-0.92393 1.023388,-1.38147 0.39033,-0.46679 0.71167,-0.69134 0.32954,-0.22561 0.69039,-0.27183 0.58229,-0.0746 0.86005,0.20658 0.27775,0.28118 0.37651,1.0521 0.041,0.31984 0.0552,0.95154 0.008,0.84093 0.1012,1.57084 0.10506,0.82012 0.25221,1.31809 0.0973,0.30429 0.25207,0.60123 0.11983,0.28473 0.13349,0.39135 0.0168,0.13122 -0.0722,0.21764 -0.22587,0.254 -0.62312,0.4716 -0.39725,0.21761 -0.68429,0.25438 -0.46747,0.0599 -0.8939,-0.21059 -0.41823,-0.27152 -0.70395,-0.81008 -0.27753,-0.53962 -0.36893,-1.25313 -0.0609,-0.47567 -0.0455,-1.13617 l -0.037,-0.0286 q -0.30223,0.43883 -0.49424,0.69683 -0.18382,0.25695 -0.34618,0.48614 -0.784059,1.16743 -1.315542,2.0941 -0.204012,0.35956 -0.377525,0.63187 -0.264572,0.34231 -0.650029,0.39169 -0.524878,0.0672 -0.903355,-0.2844 -0.378477,-0.35163 -0.458322,-0.97492 -0.04938,-0.38546 -0.03061,-0.9547 0.01877,-0.56924 0.0855,-1.21964 0.07388,-0.65966 0.192758,-1.35842 0.127082,-0.69982 0.295374,-1.33822 0.248032,-1.05708 0.716821,-1.6923 0.321778,-0.41633 0.846655,-0.48357 0.852926,-0.10926 0.994757,0.9979 0.104009,0.81192 -0.03893,2.36402 z"
         style="font-style:normal;font-variant:normal;font-weight:normal;font-stretch:normal;font-size:16.93333244px;font-family:Forte;-inkscape-font-specification:Forte;fill:url(#linearGradient5137);stroke:#000000;stroke-width:0.26443499;stroke-miterlimit:4;stroke-dasharray:none;fill-opacity:1"
         id="path5095"
         inkscape:connector-curvature="0" />
      <path
         d="m 107.67348,162.54836 q 0.48072,-0.0866 0.81765,-0.57988 0.34408,-0.50255 0.27684,-1.02743 -0.0462,-0.36085 -0.31138,-0.54362 -0.2868,-0.22166 -1.20405,-0.35424 -1.35232,-0.21021 -1.80587,-0.62725 -0.41738,-0.32998 -0.48462,-0.85485 -0.12081,-0.94314 0.43907,-1.97348 0.56808,-1.03139 1.55754,-1.76666 0.98842,-0.74346 2.07098,-0.88214 0.52487,-0.0672 1.01566,0.11996 0.49079,0.1872 0.81396,0.5626 0.32211,0.36719 0.38305,0.84286 0.0599,0.46746 -0.17127,1.00556 -0.23116,0.5381 -0.63915,0.93213 -0.40084,0.38478 -0.8027,0.43626 -0.22964,0.0294 -0.41447,-0.0469 -0.17663,-0.0774 -0.19134,-0.19222 -0.0147,-0.11481 0.0225,-0.34465 0.0901,-0.72842 0.0228,-1.2533 -0.0662,-0.51667 -0.43666,-0.93602 -0.36614,0.33032 -0.46815,0.51011 -0.26542,0.40077 -0.37881,0.8821 -0.12875,0.49163 -0.0752,0.9099 0.0378,0.29524 0.19216,0.45886 0.16148,0.15436 0.48069,0.23851 0.3274,0.0831 0.9696,0.15087 1.07413,0.12081 1.53106,0.30402 0.10576,0.0448 0.33391,0.19896 0.35472,0.29633 0.42301,0.8294 0.0725,0.56589 -0.20557,1.19335 -0.27911,0.61926 -0.93843,1.3289 -0.70221,0.76516 -1.44456,1.15201 -0.74234,0.38685 -1.68548,0.50767 -0.91033,0.11661 -1.48144,-0.177 -0.5629,-0.29467 -0.64275,-0.91796 -0.0567,-0.44286 0.22994,-0.93806 0.28562,-0.50339 0.75732,-0.85557 0.47991,-0.35323 0.97198,-0.41626 0.36905,-0.0473 0.39007,0.11674 0.0105,0.082 -0.072,0.2843 -0.24631,0.61506 -0.18432,1.09893 0.0441,0.34445 0.33828,0.62353 z"
         style="font-style:normal;font-variant:normal;font-weight:normal;font-stretch:normal;font-size:16.93333244px;font-family:Forte;-inkscape-font-specification:Forte;fill:url(#linearGradient5137);stroke:#000000;stroke-width:0.26443499;stroke-miterlimit:4;stroke-dasharray:none;fill-opacity:1"
         id="path5097"
         inkscape:connector-curvature="0" />
    </g>
    <text
       xml:space="preserve"
       style="font-style:normal;font-weight:normal;font-size:10.58333302px;line-height:1.25;font-family:sans-serif;letter-spacing:0px;word-spacing:0px;fill:#338000;fill-opacity:1;stroke:none;stroke-width:0.26458332"
       x="61.972965"
       y="174.59055"
       id="text5151"><tspan
         sodipodi:role="line"
         id="tspan5149"
         x="61.972965"
         y="174.59055"
         style="fill:#338000;stroke-width:0.26458332">jsmunroe.com</tspan></text>
  </g>
</svg>
